<svg width="21" height="22" viewBox="0 0 21 22" fill="none" xmlns="http://www.w3.org/2000/svg">
<mask id="mask0_556_219" style="mask-type:luminance" maskUnits="userSpaceOnUse" x="0" y="0" width="21" height="22">
<path d="M0.00585938 0.788189H20.7378V21.5202H0.00585938V0.788189Z" fill="white"/>
</mask>
<g mask="url(#mask0_556_219)">
<path d="M1.15458 6.31036C0.816268 6.08494 0.613281 5.70565 0.613281 5.29939V5.29838C0.613281 4.58017 1.19556 3.99794 1.91381 3.99794H18.8299C19.5481 3.99794 20.1304 4.58017 20.1304 5.29838V5.29903V5.29939C20.1304 5.70565 19.9275 6.08494 19.5892 6.31036C17.9383 7.41114 12.964 10.7271 11.0937 11.9742C10.6565 12.2657 10.0872 12.2657 9.65008 11.9742C7.77966 10.7271 2.80541 7.41114 1.15458 6.31036Z" stroke="black" stroke-width="2" stroke-miterlimit="10" stroke-linecap="round" stroke-linejoin="round"/>
<path d="M0.613281 5.29903V17.0093C0.613281 17.3544 0.750226 17.6853 0.994515 17.9292C1.23848 18.1735 1.5693 18.3105 1.91442 18.3105H18.8293C19.1744 18.3105 19.5052 18.1735 19.7492 17.9292C19.9935 17.6853 20.1304 17.3544 20.1304 17.0093V5.29903" stroke="black" stroke-width="2" stroke-miterlimit="10" stroke-linecap="round" stroke-linejoin="round"/>
</g>
</svg>
