<svg width="1664" height="1214" viewBox="0 0 1664 1214" fill="none" xmlns="http://www.w3.org/2000/svg">
<path d="M1658.52 3.23178C1661.43 6.55679 1661.09 11.6109 1657.77 14.5204C1654.44 17.43 1649.39 17.0932 1646.48 13.7682C1643.57 10.4431 1643.91 5.38902 1647.23 2.47948C1650.56 -0.430056 1655.61 -0.0932407 1658.52 3.23178ZM538.997 376.001L539.168 374.51L538.997 376.001ZM6.99806 864L8.45884 863.659L6.99806 864ZM638 1205.5L622.521 1213.27L623.53 1195.98L638 1205.5ZM1653.97 8.20741C1654.31 9.92707 1654.65 11.6402 1654.97 13.3469L1652.02 13.906C1651.7 12.2081 1651.37 10.5036 1651.03 8.79252L1653.97 8.20741ZM1656.8 23.5094C1657.38 26.8711 1657.92 30.207 1658.42 33.5175L1655.45 33.9684C1654.95 30.6766 1654.42 27.3589 1653.85 24.0152L1656.8 23.5094ZM1659.82 43.3723C1660.26 46.6318 1660.65 49.8658 1661.01 53.0748L1658.03 53.411C1657.67 50.2217 1657.28 47.007 1656.85 43.7667L1659.82 43.3723ZM1662 62.6262C1662.31 66.0733 1662.59 69.4906 1662.83 72.8784L1659.84 73.0876C1659.6 69.7225 1659.33 66.3276 1659.01 62.9025L1662 62.6262ZM1663.42 83.0824C1663.58 86.4536 1663.7 89.7947 1663.77 93.106L1660.77 93.1732C1660.7 89.8862 1660.58 86.5691 1660.43 83.2216L1663.42 83.0824ZM1663.87 102.95C1663.86 106.202 1663.81 109.425 1663.73 112.617L1660.73 112.535C1660.82 109.368 1660.86 106.171 1660.87 102.944L1663.87 102.95ZM1663.31 122.791C1663.12 126.217 1662.88 129.607 1662.6 132.964L1659.61 132.711C1659.89 129.384 1660.12 126.022 1660.31 122.625L1663.31 122.791ZM1661.61 142.929C1661.23 146.217 1660.81 149.47 1660.34 152.689L1657.37 152.258C1657.84 149.069 1658.25 145.846 1658.63 142.588L1661.61 142.929ZM1658.79 162.328C1658.19 165.724 1657.53 169.08 1656.83 172.398L1653.89 171.774C1654.59 168.49 1655.24 165.167 1655.83 161.804L1658.79 162.328ZM1654.56 182.235C1653.75 185.476 1652.89 188.679 1651.98 191.843L1649.1 191.016C1650 187.885 1650.85 184.717 1651.64 181.51L1654.56 182.235ZM1649.11 201.223C1648.06 204.448 1646.95 207.631 1645.8 210.775L1642.98 209.739C1644.13 206.631 1645.22 203.483 1646.26 200.293L1649.11 201.223ZM1642.13 220.185C1640.85 223.281 1639.53 226.336 1638.14 229.35L1635.42 228.101C1636.78 225.122 1638.09 222.102 1639.36 219.042L1642.13 220.185ZM1633.85 238.271C1632.33 241.268 1630.77 244.223 1629.15 247.137L1626.52 245.679C1628.12 242.799 1629.67 239.879 1631.17 236.918L1633.85 238.271ZM1624.08 255.832C1622.34 258.688 1620.55 261.503 1618.71 264.277L1616.21 262.616C1618.03 259.875 1619.8 257.094 1621.52 254.271L1624.08 255.832ZM1613.02 272.474C1611.07 275.18 1609.06 277.846 1607.01 280.47L1604.65 278.621C1606.68 276.027 1608.66 273.392 1610.59 270.717L1613.02 272.474ZM1600.68 288.238C1598.53 290.787 1596.32 293.295 1594.07 295.764L1591.85 293.742C1594.08 291.3 1596.26 288.82 1598.39 286.3L1600.68 288.238ZM1587.17 303.05C1584.84 305.418 1582.47 307.747 1580.06 310.038L1577.99 307.861C1580.38 305.595 1582.73 303.29 1585.03 300.948L1587.17 303.05ZM1572.7 316.78C1570.2 318.99 1567.66 321.163 1565.08 323.298L1563.16 320.986C1565.72 318.872 1568.24 316.721 1570.71 314.534L1572.7 316.78ZM1557.2 329.595C1554.59 331.616 1551.94 333.602 1549.25 335.554L1547.49 333.125C1550.15 331.191 1552.78 329.224 1555.37 327.222L1557.2 329.595ZM1541.1 341.277C1538.35 343.151 1535.56 344.991 1532.74 346.798L1531.12 344.271C1533.92 342.479 1536.69 340.655 1539.42 338.797L1541.1 341.277ZM1524.15 352.121C1521.32 353.822 1518.46 355.491 1515.56 357.13L1514.09 354.519C1516.96 352.893 1519.8 351.237 1522.61 349.55L1524.15 352.121ZM1506.86 361.909C1503.93 363.472 1500.97 365.006 1497.98 366.51L1496.63 363.83C1499.6 362.336 1502.54 360.814 1505.45 359.262L1506.86 361.909ZM1488.91 370.937C1485.91 372.358 1482.88 373.751 1479.82 375.117L1478.6 372.379C1481.63 371.021 1484.64 369.637 1487.62 368.226L1488.91 370.937ZM1470.75 379.059C1467.7 380.347 1464.62 381.609 1461.52 382.845L1460.41 380.058C1463.49 378.829 1466.55 377.575 1469.58 376.295L1470.75 379.059ZM1452.14 386.478C1449 387.66 1445.83 388.817 1442.64 389.949L1441.64 387.122C1444.81 385.996 1447.96 384.846 1451.08 383.671L1452.14 386.478ZM1433.33 393.166C1430.2 394.215 1427.05 395.242 1423.88 396.247L1422.98 393.387C1426.13 392.387 1429.26 391.366 1432.37 390.322L1433.33 393.166ZM1414.31 399.194C1411.1 400.155 1407.87 401.093 1404.62 402.011L1403.81 399.123C1407.04 398.21 1410.26 397.276 1413.45 396.32L1414.31 399.194ZM1395 404.649C1391.83 405.494 1388.63 406.32 1385.42 407.126L1384.69 404.216C1387.89 403.414 1391.07 402.592 1394.23 401.75L1395 404.649ZM1375.74 409.486C1372.5 410.254 1369.24 411.002 1365.97 411.732L1365.32 408.804C1368.58 408.077 1371.82 407.331 1375.05 406.567L1375.74 409.486ZM1356.1 413.864C1352.88 414.539 1349.64 415.196 1346.39 415.836L1345.81 412.893C1349.05 412.255 1352.27 411.6 1355.48 410.928L1356.1 413.864ZM1336.65 417.695C1333.39 418.297 1330.12 418.883 1326.83 419.452L1326.32 416.496C1329.59 415.929 1332.85 415.345 1336.1 414.745L1336.65 417.695ZM1316.94 421.11C1313.63 421.647 1310.3 422.167 1306.97 422.671L1306.52 419.704C1309.85 419.202 1313.16 418.683 1316.46 418.149L1316.94 421.11ZM1297.19 424.1C1293.92 424.561 1290.64 425.007 1287.35 425.439L1286.96 422.464C1290.24 422.034 1293.51 421.589 1296.77 421.13L1297.19 424.1ZM1277.45 426.69C1274.14 427.092 1270.82 427.48 1267.5 427.854L1267.16 424.873C1270.48 424.5 1273.79 424.113 1277.09 423.712L1277.45 426.69ZM1257.49 428.934C1254.21 429.273 1250.93 429.599 1247.63 429.912L1247.35 426.925C1250.63 426.613 1253.91 426.288 1257.18 425.95L1257.49 428.934ZM1237.74 430.811C1234.43 431.097 1231.12 431.371 1227.8 431.633L1227.56 428.642C1230.87 428.381 1234.18 428.108 1237.48 427.822L1237.74 430.811ZM1217.82 432.379C1214.48 432.616 1211.15 432.84 1207.8 433.052L1207.61 430.058C1210.95 429.846 1214.28 429.623 1217.6 429.387L1217.82 432.379ZM1197.88 433.645C1194.58 433.831 1191.27 434.005 1187.95 434.168L1187.8 431.172C1191.11 431.009 1194.42 430.835 1197.72 430.65L1197.88 433.645ZM1177.99 434.624C1174.67 434.764 1171.34 434.894 1168.01 435.013L1167.9 432.015C1171.23 431.896 1174.55 431.767 1177.87 431.626L1177.99 434.624ZM1158 435.338C1154.69 435.435 1151.37 435.522 1148.04 435.598L1147.97 432.599C1151.29 432.523 1154.6 432.436 1157.92 432.339L1158 435.338ZM1138.09 435.797C1134.77 435.853 1131.44 435.899 1128.12 435.936L1128.09 432.936C1131.41 432.899 1134.72 432.853 1138.04 432.797L1138.09 435.797ZM1118.14 436.017C1114.81 436.035 1111.49 436.043 1108.16 436.041L1108.16 433.042C1111.48 433.043 1114.8 433.035 1118.13 433.017L1118.14 436.017ZM1098.18 436.011C1094.85 435.991 1091.53 435.963 1088.2 435.926L1088.24 432.926C1091.56 432.963 1094.88 432.992 1098.19 433.011L1098.18 436.011ZM1078.23 435.789C1074.91 435.735 1071.59 435.673 1068.26 435.602L1068.33 432.602C1071.65 432.673 1074.96 432.736 1078.28 432.79L1078.23 435.789ZM1058.3 435.364C1054.98 435.277 1051.66 435.181 1048.33 435.078L1048.43 432.08C1051.74 432.183 1055.06 432.278 1058.38 432.365L1058.3 435.364ZM1038.35 434.744C1035.02 434.625 1031.69 434.498 1028.37 434.364L1028.49 431.366C1031.81 431.5 1035.13 431.627 1038.45 431.746L1038.35 434.744ZM1018.41 433.939C1015.1 433.791 1011.78 433.635 1008.47 433.472L1008.62 430.475C1011.93 430.638 1015.23 430.794 1018.55 430.942L1018.41 433.939ZM998.544 432.962C995.204 432.783 991.868 432.597 988.537 432.405L988.709 429.41C992.037 429.602 995.368 429.787 998.704 429.966L998.544 432.962ZM978.557 431.809C975.235 431.603 971.919 431.392 968.608 431.174L968.805 428.18C972.112 428.398 975.424 428.609 978.742 428.814L978.557 431.809ZM958.693 430.502C955.394 430.272 952.101 430.036 948.815 429.795L949.035 426.803C952.317 427.044 955.607 427.28 958.902 427.509L958.693 430.502ZM938.793 429.039C935.458 428.781 932.129 428.518 928.809 428.249L929.051 425.259C932.368 425.527 935.692 425.791 939.025 426.048L938.793 429.039ZM918.871 427.427C915.566 427.147 912.27 426.863 908.983 426.573L909.246 423.585C912.53 423.874 915.822 424.158 919.123 424.437L918.871 427.427ZM899.147 425.691C895.795 425.384 892.452 425.073 889.119 424.756L889.403 421.77C892.732 422.086 896.071 422.397 899.42 422.703L899.147 425.691ZM879.133 423.793C875.814 423.467 872.507 423.137 869.211 422.803L869.514 419.818C872.806 420.152 876.111 420.482 879.426 420.807L879.133 423.793ZM859.358 421.788C856.083 421.446 852.821 421.1 849.57 420.75L849.891 417.768C853.138 418.117 856.398 418.463 859.67 418.805L859.358 421.788ZM839.508 419.653C836.168 419.283 832.842 418.91 829.531 418.534L829.869 415.553C833.178 415.929 836.501 416.302 839.838 416.671L839.508 419.653ZM819.641 417.396C816.359 417.014 813.093 416.629 809.842 416.241L810.197 413.262C813.445 413.65 816.709 414.034 819.988 414.416L819.641 417.396ZM800.007 415.055C796.637 414.644 793.285 414.23 789.952 413.814L790.323 410.837C793.654 411.253 797.003 411.666 800.37 412.077L800.007 415.055ZM780.01 412.561C776.715 412.141 773.439 411.72 770.183 411.297L770.57 408.322C773.823 408.745 777.096 409.166 780.389 409.585L780.01 412.561ZM760.478 410.025C757.116 409.58 753.777 409.134 750.461 408.687L750.861 405.714C754.175 406.161 757.512 406.606 760.871 407.051L760.478 410.025ZM740.458 407.328C737.148 406.874 733.864 406.42 730.605 405.966L731.019 402.995C734.276 403.449 737.558 403.902 740.865 404.356L740.458 407.328ZM720.906 404.605C717.579 404.134 714.281 403.664 711.012 403.195L711.438 400.226C714.705 400.694 718.001 401.164 721.326 401.634L720.906 404.605ZM700.959 401.742C697.64 401.26 694.353 400.778 691.101 400.299L691.538 397.331C694.789 397.81 698.073 398.291 701.39 398.774L700.959 401.742ZM681.445 398.868C678.103 398.37 674.8 397.875 671.536 397.383L671.983 394.417C675.246 394.908 678.547 395.403 681.887 395.901L681.445 398.868ZM661.478 395.86C658.169 395.357 654.904 394.858 651.683 394.364L652.138 391.399C655.357 391.892 658.621 392.391 661.929 392.894L661.478 395.86ZM642.16 392.898C638.708 392.365 635.314 391.839 631.978 391.321L632.438 388.356C635.773 388.874 639.167 389.4 642.618 389.933L642.16 392.898ZM622.046 389.776C618.796 389.269 615.608 388.772 612.483 388.284L612.945 385.32C616.07 385.808 619.258 386.305 622.508 386.811L622.046 389.776ZM602.467 386.723C599.048 386.191 595.714 385.673 592.469 385.171L592.928 382.206C596.174 382.709 599.509 383.227 602.928 383.759L602.467 386.723ZM583.003 383.713C579.477 383.174 576.072 382.657 572.793 382.165L573.238 379.198C576.521 379.691 579.929 380.208 583.457 380.748L583.003 383.713ZM563.016 380.72C559.571 380.22 556.294 379.754 553.193 379.328L553.602 376.356C556.712 376.784 559.996 377.25 563.448 377.751L563.016 380.72ZM543.258 378.021C541.72 377.831 540.243 377.654 538.826 377.491L539.168 374.51C540.595 374.674 542.082 374.852 543.627 375.044L543.258 378.021ZM538.826 377.491C537.108 377.293 535.396 377.101 533.689 376.914L534.017 373.932C535.728 374.12 537.446 374.313 539.168 374.51L538.826 377.491ZM523.513 375.849C520.143 375.513 516.794 375.197 513.467 374.901L513.733 371.913C517.07 372.21 520.43 372.527 523.81 372.863L523.513 375.849ZM503.549 374.069C500.264 373.811 497.001 373.572 493.759 373.352L493.962 370.359C497.215 370.58 500.489 370.819 503.784 371.078L503.549 374.069ZM484.006 372.744C480.561 372.548 477.141 372.374 473.745 372.221L473.88 369.224C477.288 369.377 480.72 369.552 484.176 369.749L484.006 372.744ZM463.63 371.827C460.283 371.717 456.959 371.628 453.659 371.56L453.721 368.56C457.033 368.629 460.369 368.718 463.729 368.828L463.63 371.827ZM443.832 371.418C440.548 371.391 437.289 371.385 434.054 371.4L434.04 368.4C437.288 368.385 440.56 368.391 443.856 368.418L443.832 371.418ZM423.796 371.518C420.404 371.581 417.039 371.667 413.701 371.776L413.603 368.777C416.955 368.668 420.335 368.582 423.741 368.519L423.796 371.518ZM403.766 372.171C400.482 372.325 397.223 372.502 393.992 372.701L393.807 369.707C397.054 369.507 400.326 369.329 403.626 369.174L403.766 372.171ZM384.035 373.391C380.624 373.654 377.243 373.942 373.891 374.255L373.613 371.268C376.98 370.953 380.377 370.664 383.805 370.4L384.035 373.391ZM363.927 375.267C360.636 375.629 357.374 376.016 354.141 376.427L353.763 373.45C357.012 373.038 360.291 372.649 363.599 372.285L363.927 375.267ZM344.424 377.745C341.026 378.237 337.661 378.755 334.33 379.3L333.846 376.339C337.196 375.791 340.579 375.27 343.995 374.776L344.424 377.745ZM324.434 381.013C321.168 381.611 317.935 382.234 314.735 382.883L314.138 379.943C317.358 379.29 320.61 378.663 323.894 378.062L324.434 381.013ZM305.155 384.923C301.809 385.67 298.5 386.445 295.227 387.249L294.512 384.335C297.806 383.527 301.135 382.747 304.501 381.995L305.155 384.923ZM285.517 389.742C282.317 390.6 279.152 391.486 276.022 392.398L275.182 389.518C278.333 388.6 281.519 387.708 284.74 386.844L285.517 389.742ZM266.548 395.275C263.3 396.302 260.092 397.358 256.923 398.442L255.951 395.604C259.143 394.511 262.374 393.448 265.644 392.415L266.548 395.275ZM247.531 401.781C244.439 402.922 241.386 404.091 238.37 405.287L237.264 402.498C240.302 401.293 243.378 400.116 246.492 398.966L247.531 401.781ZM229.055 409.12C225.953 410.443 222.892 411.796 219.873 413.177L218.625 410.449C221.668 409.057 224.752 407.694 227.878 406.36L229.055 409.12ZM210.94 417.406C207.944 418.872 204.991 420.367 202.08 421.891L200.689 419.233C203.624 417.697 206.601 416.189 209.621 414.711L210.94 417.406ZM193.22 426.685C190.311 428.312 187.445 429.968 184.623 431.651L183.086 429.075C185.933 427.377 188.822 425.707 191.756 424.066L193.22 426.685ZM176.217 436.826C173.361 438.641 170.552 440.484 167.788 442.356L166.106 439.872C168.894 437.984 171.728 436.124 174.608 434.294L176.217 436.826ZM159.631 448.054C156.946 449.988 154.306 451.949 151.711 453.937L149.887 451.555C152.505 449.55 155.168 447.571 157.877 445.62L159.631 448.054ZM143.809 460.179C141.222 462.286 138.681 464.42 136.186 466.579L134.223 464.311C136.74 462.132 139.304 459.979 141.914 457.853L143.809 460.179ZM128.805 473.161C126.326 475.439 123.894 477.742 121.509 480.07L119.414 477.923C121.82 475.574 124.274 473.25 126.776 470.952L128.805 473.161ZM114.495 487.125C112.187 489.516 109.926 491.93 107.71 494.366L105.491 492.348C107.726 489.89 110.007 487.454 112.336 485.041L114.495 487.125ZM101.077 501.882C98.9124 504.408 96.7945 506.956 94.7223 509.524L92.3878 507.64C94.4782 505.05 96.6147 502.479 98.7982 499.93L101.077 501.882ZM88.5804 517.365C86.5547 520.029 84.5758 522.712 82.6424 525.413L80.203 523.667C82.153 520.943 84.149 518.237 86.1922 515.549L88.5804 517.365ZM76.978 533.566C75.1086 536.339 73.2851 539.128 71.5065 541.932L68.9732 540.325C70.7666 537.498 72.6053 534.686 74.4904 531.889L76.978 533.566ZM66.2755 550.433C64.5755 553.282 62.9199 556.144 61.3075 559.018L58.6912 557.55C60.3165 554.653 61.9854 551.768 63.6992 548.896L66.2755 550.433ZM56.5157 567.829C54.9625 570.776 53.453 573.734 51.9859 576.7L49.2968 575.37C50.7751 572.381 52.2963 569.401 53.8617 566.43L56.5157 567.829ZM47.6811 585.686C46.2727 588.723 44.9072 591.767 43.5833 594.816L40.8315 593.621C42.165 590.55 43.5406 587.484 44.9596 584.424L47.6811 585.686ZM39.7361 603.976C38.4747 607.081 37.2552 610.19 36.0763 613.3L33.2711 612.237C34.4582 609.105 35.6862 605.975 36.9565 602.847L39.7361 603.976ZM32.6467 622.671C31.5373 625.812 30.4679 628.953 29.4375 632.09L26.5872 631.154C27.6246 627.996 28.701 624.834 29.818 621.672L32.6467 622.671ZM26.4126 641.652C25.4436 644.835 24.5134 648.013 23.6206 651.184L20.7329 650.371C21.6312 647.18 22.5674 643.982 23.5427 640.778L26.4126 641.652ZM21.0027 660.867C20.1631 664.105 19.3615 667.334 18.5964 670.55L15.6779 669.855C16.4475 666.62 17.254 663.372 18.0987 660.114L21.0027 660.867ZM16.3861 680.266C15.6713 683.557 14.9939 686.833 14.352 690.09L11.4086 689.511C12.0541 686.234 12.7354 682.94 13.4544 679.63L16.3861 680.266ZM12.532 699.809C11.938 703.152 11.3808 706.472 10.8586 709.768L7.89562 709.299C8.42064 705.985 8.98092 702.646 9.57822 699.284L12.532 699.809ZM9.39519 719.577C8.92522 722.933 8.4907 726.259 8.08983 729.552L5.11176 729.19C5.5149 725.879 5.9516 722.535 6.42416 719.161L9.39519 719.577ZM6.97412 739.438C6.6237 742.807 6.30771 746.136 6.02373 749.422L3.03486 749.164C3.32031 745.861 3.63796 742.514 3.99025 739.128L6.97412 739.438ZM5.25109 759.359C5.01676 762.749 4.81604 766.085 4.64595 769.364L1.64996 769.209C1.8209 765.913 2.02275 762.559 2.25822 759.153L5.25109 759.359ZM4.21545 779.306C4.09635 782.734 4.01017 786.088 3.95337 789.364L0.95378 789.312C1.01086 786.019 1.09753 782.647 1.21725 779.202L4.21545 779.306ZM3.86736 799.216C3.86717 802.71 3.8995 806.097 3.95937 809.37L0.959825 809.425C0.899688 806.134 0.867197 802.728 0.86736 799.216L3.86736 799.216ZM4.23283 819.293C4.36094 822.752 4.51806 826.051 4.69674 829.177L1.70164 829.348C1.52187 826.202 1.36377 822.883 1.2349 819.404L4.23283 819.293ZM5.38759 839.267C5.68281 842.94 6.00153 846.271 6.32506 849.231L3.34283 849.557C3.01605 846.567 2.69463 843.207 2.3972 839.508L5.38759 839.267ZM7.57863 858.894C7.9069 860.99 8.20868 862.587 8.45884 863.659L5.53728 864.341C5.26343 863.167 4.9486 861.49 4.61476 859.358L7.57863 858.894ZM8.45884 863.659C8.84426 865.311 9.23401 866.955 9.62803 868.59L6.71159 869.293C6.31577 867.651 5.92435 866 5.53728 864.341L8.45884 863.659ZM12.0443 878.302C12.867 881.506 13.7068 884.677 14.5636 887.816L11.6695 888.606C10.8086 885.453 9.96501 882.267 9.13862 879.048L12.0443 878.302ZM17.2118 897.228C18.1526 900.473 19.112 903.681 20.09 906.854L17.2231 907.738C16.2401 904.549 15.2758 901.324 14.3305 898.063L17.2118 897.228ZM23.0793 916.267C24.0964 919.376 25.1318 922.45 26.1854 925.488L23.351 926.471C22.2915 923.416 21.2505 920.325 20.228 917.2L23.0793 916.267ZM29.5692 934.959C30.7171 938.077 31.8848 941.157 33.0722 944.2L30.2775 945.291C29.083 942.23 27.9084 939.131 26.7539 935.995L29.5692 934.959ZM36.7042 953.242C37.9933 956.361 39.3037 959.439 40.6353 962.476L37.8878 963.681C36.5475 960.624 35.2287 957.527 33.9317 954.388L36.7042 953.242ZM44.6932 971.467C46.0813 974.456 47.4908 977.403 48.9212 980.31L46.2295 981.635C44.789 978.707 43.3699 975.739 41.9724 972.731L44.6932 971.467ZM53.4364 989.221C54.9638 992.148 56.5135 995.033 58.0851 997.876L55.4596 999.328C53.8762 996.463 52.3152 993.557 50.7767 990.609L53.4364 989.221ZM62.9733 1006.47C64.6592 1009.34 66.3686 1012.17 68.1011 1014.96L65.553 1016.55C63.8066 1013.74 62.0838 1010.88 60.3849 1007.98L62.9733 1006.47ZM73.3678 1023.2C75.2089 1025.99 77.0744 1028.74 78.9639 1031.45L76.5049 1033.16C74.5994 1030.44 72.7184 1027.67 70.8623 1024.85L73.3678 1023.2ZM84.7213 1039.44C86.6911 1042.1 88.6854 1044.71 90.7035 1047.28L88.3458 1049.13C86.3097 1046.54 84.2981 1043.91 82.3113 1041.23L84.7213 1039.44ZM96.9461 1054.98C99.0516 1057.5 101.182 1059.97 103.336 1062.4L101.091 1064.39C98.9177 1061.94 96.7684 1059.44 94.644 1056.9L96.9461 1054.98ZM110.048 1069.74C112.31 1072.14 114.597 1074.49 116.909 1076.8L114.79 1078.92C112.457 1076.59 110.148 1074.22 107.865 1071.8L110.048 1069.74ZM124.013 1083.67C126.423 1085.93 128.858 1088.15 131.318 1090.31L129.334 1092.56C126.851 1090.38 124.393 1088.14 121.96 1085.86L124.013 1083.67ZM138.809 1096.72C141.355 1098.83 143.926 1100.89 146.522 1102.91L144.68 1105.28C142.06 1103.24 139.465 1101.16 136.895 1099.03L138.809 1096.72ZM154.385 1108.84C157.054 1110.79 159.747 1112.69 162.463 1114.55L160.768 1117.03C158.027 1115.15 155.309 1113.23 152.616 1111.26L154.385 1108.84ZM170.683 1120C173.457 1121.79 176.253 1123.52 179.073 1125.22L177.525 1127.79C174.681 1126.08 171.86 1124.33 169.062 1122.53L170.683 1120ZM187.607 1130.19C190.474 1131.81 193.363 1133.39 196.274 1134.93L194.874 1137.58C191.938 1136.03 189.024 1134.44 186.133 1132.81L187.607 1130.19ZM205.073 1139.42C208.024 1140.88 210.996 1142.3 213.989 1143.68L212.73 1146.41C209.714 1145.01 206.719 1143.58 203.744 1142.11L205.073 1139.42ZM223.007 1147.71C226.031 1149.02 229.076 1150.29 232.14 1151.53L231.017 1154.31C227.931 1153.06 224.864 1151.78 221.817 1150.47L223.007 1147.71ZM241.334 1155.11C244.417 1156.27 247.519 1157.4 250.639 1158.5L249.645 1161.33C246.504 1160.22 243.381 1159.09 240.276 1157.92L241.334 1155.11ZM259.988 1161.67C263.116 1162.7 266.262 1163.69 269.424 1164.66L268.548 1167.53C265.367 1166.56 262.202 1165.56 259.054 1164.52L259.988 1161.67ZM278.911 1167.46C282.073 1168.36 285.252 1169.23 288.446 1170.07L287.678 1172.97C284.467 1172.12 281.271 1171.25 278.09 1170.34L278.911 1167.46ZM298.051 1172.52C301.239 1173.31 304.442 1174.07 307.659 1174.8L306.991 1177.73C303.758 1176.99 300.539 1176.23 297.335 1175.44L298.051 1172.52ZM317.351 1176.94C320.563 1177.62 323.788 1178.28 327.026 1178.91L326.447 1181.86C323.195 1181.22 319.956 1180.56 316.729 1179.87L317.351 1176.94ZM336.763 1180.76C340.002 1181.35 343.253 1181.92 346.516 1182.47L346.016 1185.43C342.741 1184.87 339.477 1184.3 336.225 1183.71L336.763 1180.76ZM356.282 1184.06C359.544 1184.57 362.818 1185.06 366.102 1185.53L365.673 1188.5C362.378 1188.02 359.093 1187.53 355.819 1187.02L356.282 1184.06ZM375.887 1186.89C379.158 1187.33 382.44 1187.75 385.731 1188.15L385.364 1191.13C382.064 1190.72 378.772 1190.3 375.49 1189.86L375.887 1186.89ZM395.559 1189.31C398.833 1189.69 402.116 1190.05 405.408 1190.39L405.095 1193.37C401.795 1193.03 398.503 1192.67 395.22 1192.3L395.559 1189.31ZM415.283 1191.39C418.558 1191.7 421.842 1192.01 425.133 1192.3L424.866 1195.29C421.568 1195 418.277 1194.69 414.994 1194.37L415.283 1191.39ZM435.027 1193.15C438.31 1193.42 441.599 1193.68 444.895 1193.93L444.667 1196.93C441.365 1196.67 438.07 1196.41 434.781 1196.14L435.027 1193.15ZM454.783 1194.66C458.078 1194.89 461.379 1195.12 464.686 1195.33L464.489 1198.33C461.178 1198.11 457.872 1197.89 454.572 1197.65L454.783 1194.66ZM474.568 1195.96C477.867 1196.16 481.172 1196.36 484.481 1196.55L484.31 1199.54C480.997 1199.35 477.688 1199.16 474.385 1198.95L474.568 1195.96ZM494.373 1197.09C497.671 1197.27 500.972 1197.44 504.278 1197.61L504.125 1200.61C500.817 1200.44 497.513 1200.27 494.212 1200.09L494.373 1197.09ZM514.193 1198.1C517.489 1198.26 520.789 1198.42 524.091 1198.57L523.952 1201.57C520.648 1201.41 517.346 1201.26 514.048 1201.1L514.193 1198.1ZM534.009 1199.03C537.309 1199.17 540.611 1199.32 543.916 1199.47L543.784 1202.46C540.478 1202.32 537.175 1202.17 533.874 1202.02L534.009 1199.03ZM553.827 1199.9C557.131 1200.05 560.438 1200.19 563.746 1200.34L563.615 1203.33C560.307 1203.19 557.001 1203.04 553.696 1202.9L553.827 1199.9ZM573.655 1200.77C576.959 1200.92 580.264 1201.07 583.57 1201.22L583.434 1204.21C580.129 1204.06 576.825 1203.92 573.522 1203.77L573.655 1200.77ZM593.485 1201.67C596.789 1201.83 600.093 1201.99 603.398 1202.15L603.252 1205.14C599.949 1204.98 596.647 1204.82 593.344 1204.67L593.485 1201.67ZM613.312 1202.64C616.617 1202.81 619.922 1202.98 623.226 1203.16L623.064 1206.16C619.763 1205.98 616.461 1205.81 613.158 1205.64L613.312 1202.64Z" fill="#CFCFCF"/>
</svg>
