<svg version="1.1" id="Layer_1" xmlns="http://www.w3.org/2000/svg" xmlns:xlink="http://www.w3.org/1999/xlink" x="0px" y="0px" width="86px" height="26px"
	 viewBox="0 0 179.3 53.9" style="enable-background:new 0 0 179.3 53.9;" xml:space="preserve">
<style type="text/css">
	.st0{fill:#595FA8;}
	.st1{fill:#37C56B;}
</style>
<g>
	<g>
		<path class="st0" d="M44.5,25.5c0,2,0,3.4-0.1,4.4c-0.3,5.2-1.9,9.3-4.9,12.2c-2.9,2.9-7.2,4.4-12.8,4.4H11.6
			c-0.4,0-0.8-0.2-1.1-0.5c-0.3-0.3-0.5-0.7-0.5-1.1V6.2c0-0.4,0.2-0.8,0.5-1.1c0.3-0.3,0.7-0.5,1.1-0.5h14.8c5.7,0,10.1,1.5,13,4.4
			c3,2.9,4.6,7,4.9,12.2C44.4,22.1,44.5,23.6,44.5,25.5z M18.1,12v27h8.3c3.2,0,5.5-0.8,7.2-2.5c1.6-1.6,2.5-3.8,2.7-6.6
			c0.1-1,0.1-2.5,0.1-4.4c0-2,0-3.4-0.1-4.4c-0.2-2.8-1.1-5-2.7-6.6c-1.7-1.6-4.1-2.5-7.4-2.5H18.1z"/>
		<path class="st0" d="M77.6,30.9c0,1.3,0,2.1-0.1,2.5c-0.1,4-1.3,7.3-3.6,9.9c-2.3,2.5-5.5,3.8-9.7,3.8c-4.2,0-7.4-1.3-9.7-3.8
			c-2.3-2.5-3.5-5.8-3.6-9.9l-0.1-2.5l0.1-2.5c0.1-4,1.3-7.3,3.6-9.9c2.3-2.5,5.5-3.8,9.7-3.8c4.2,0,7.4,1.3,9.7,3.8
			c2.3,2.5,3.5,5.8,3.6,9.9C77.6,28.8,77.6,29.7,77.6,30.9z M57.4,21c-1.7,1.8-2.7,4.4-2.8,7.8l-0.1,2.2l0.1,2.2
			c0.1,3.4,1,6,2.8,7.8c1.7,1.8,4,2.7,6.9,2.7c2.8,0,5.1-0.9,6.9-2.7c1.7-1.8,2.7-4.4,2.8-7.8c0-0.4,0.1-1.1,0.1-2.2s0-1.8-0.1-2.2
			c-0.1-3.4-1.1-5.9-2.8-7.8c-1.7-1.8-4-2.7-6.9-2.7C61.4,18.2,59.1,19.1,57.4,21z"/>
		<path class="st0" d="M90.8,41.1c1.7,1.7,4,2.6,6.9,2.6c2.2,0,4-0.5,5.5-1.4c1.4-0.9,2.6-2.5,3.4-4.7c0.2-0.5,0.4-0.8,0.6-1
			c0.2-0.2,0.5-0.3,0.9-0.3h0.8c0.4,0,0.7,0.1,1,0.4c0.3,0.3,0.4,0.6,0.4,0.9c-0.1,1.6-0.6,3.1-1.5,4.5c-0.9,1.5-2.3,2.7-4.2,3.6
			c-1.9,0.9-4.1,1.4-6.8,1.4c-4.2,0-7.4-1.2-9.7-3.6c-2.3-2.4-3.5-5.8-3.6-10.2l-0.1-2.4l0.1-2.4c0.1-4.4,1.3-7.7,3.6-10.2
			c2.3-2.4,5.5-3.6,9.7-3.6c2.6,0,4.9,0.5,6.8,1.4c1.9,0.9,3.2,2.1,4.2,3.6c0.9,1.5,1.4,3,1.5,4.5c0,0.4-0.1,0.7-0.4,0.9
			c-0.3,0.3-0.6,0.4-1,0.4h-0.8c-0.4,0-0.7-0.1-0.9-0.3c-0.2-0.2-0.4-0.5-0.6-1c-0.8-2.2-1.9-3.8-3.4-4.7c-1.4-0.9-3.3-1.4-5.5-1.4
			c-2.9,0-5.2,0.9-6.9,2.6c-1.7,1.7-2.6,4.4-2.7,8L88,30.9l0.1,2.1C88.2,36.6,89.1,39.3,90.8,41.1z"/>
		<path class="st0" d="M122,8.6c-0.3,0.2-0.6,0.4-1,0.4h-2.3c-0.4,0-0.7-0.1-1-0.4c-0.2-0.2-0.4-0.6-0.4-1V5.3c0-0.4,0.1-0.7,0.4-1
			c0.2-0.3,0.6-0.4,1-0.4h2.3c0.4,0,0.7,0.1,1,0.4c0.3,0.3,0.4,0.6,0.4,1v2.3C122.3,8,122.2,8.3,122,8.6z M121.3,46.2
			c-0.2,0.2-0.6,0.4-1,0.4h-1c-0.4,0-0.7-0.1-1-0.4c-0.2-0.2-0.4-0.6-0.4-1V16.7c0-0.4,0.1-0.7,0.4-1c0.2-0.2,0.6-0.4,1-0.4h1
			c0.4,0,0.7,0.1,1,0.4c0.2,0.2,0.4,0.6,0.4,1v28.6C121.7,45.6,121.6,45.9,121.3,46.2z"/>
		<path class="st0" d="M138.5,41.4c0.7,1.1,2,1.7,3.7,1.7h3.2c0.4,0,0.7,0.1,1,0.4c0.2,0.2,0.4,0.6,0.4,1v0.8c0,0.4-0.1,0.7-0.4,1
			c-0.2,0.2-0.6,0.4-1,0.4h-3.5c-3,0-5.1-0.9-6.3-2.7c-1.2-1.8-1.9-4.2-1.9-7.4V18.8h-4.7c-0.4,0-0.7-0.1-1-0.4
			c-0.2-0.2-0.4-0.6-0.4-1v-0.8c0-0.4,0.1-0.7,0.4-1c0.2-0.2,0.6-0.4,1-0.4h4.7V5.3c0-0.4,0.1-0.7,0.4-1c0.2-0.2,0.6-0.4,1-0.4h1
			c0.4,0,0.7,0.1,1,0.4c0.2,0.2,0.4,0.6,0.4,1v10.1h7.4c0.4,0,0.7,0.1,1,0.4c0.2,0.2,0.4,0.6,0.4,1v0.8c0,0.4-0.1,0.7-0.4,1
			c-0.2,0.2-0.6,0.4-1,0.4h-7.4v17.5C137.4,38.5,137.8,40.2,138.5,41.4z"/>
	</g>
</g>
<circle class="st1" cx="163.1" cy="42.9" r="7"/>
</svg>
