<svg width="26" height="26" viewBox="0 0 26 26" fill="none" xmlns="http://www.w3.org/2000/svg">
<path d="M1.2797 18.7322C1.34861 18.4719 1.47134 18.2289 1.63999 18.019C1.80863 17.8091 2.01942 17.6368 2.25876 17.5134L7.28407 14.9094C7.68957 14.6944 8.15884 14.6323 8.60629 14.7345C9.05375 14.8367 9.44957 15.0963 9.72157 15.4659L10.5341 16.5791C10.5758 16.6369 10.6373 16.6775 10.7068 16.6932C10.7764 16.7089 10.8493 16.6987 10.9119 16.6644C12.1068 15.9844 13.2007 15.1407 14.1619 14.1578C15.1448 13.1966 15.9885 12.1027 16.6684 10.9078C16.7027 10.8453 16.713 10.7723 16.6973 10.7028C16.6816 10.6332 16.641 10.5717 16.5831 10.53L15.4741 9.7175C15.1044 9.4455 14.8448 9.04968 14.7426 8.60223C14.6405 8.15478 14.7025 7.68551 14.9175 7.28L17.5053 2.25875C17.6296 2.01909 17.803 1.80831 18.0142 1.64014C18.2254 1.47197 18.4696 1.35019 18.731 1.28273C18.9924 1.21527 19.2651 1.20365 19.5313 1.24862C19.7975 1.2936 20.0512 1.39416 20.2759 1.54375L23.4325 3.65625C23.8757 3.95138 24.2336 4.35779 24.4704 4.83478C24.7071 5.31177 24.8143 5.84259 24.7813 6.37407C24.7395 7.27266 24.6185 8.16581 24.4197 9.04313C23.5625 12.35 21.4947 15.7503 18.6225 18.6266C15.7503 21.5028 12.3459 23.5625 9.03907 24.4116C8.16174 24.6103 7.26859 24.7313 6.37001 24.7731H6.16688C5.67112 24.772 5.18316 24.6497 4.74554 24.4167C4.30793 24.1838 3.93396 23.8472 3.65626 23.4366L1.55188 20.28C1.4 20.0558 1.29723 19.8019 1.25032 19.5352C1.20341 19.2684 1.21342 18.9948 1.2797 18.7322ZM2.9047 19.3741L4.99688 22.5347C5.13575 22.7397 5.32574 22.9049 5.54805 23.0139C5.77036 23.1229 6.01728 23.172 6.26438 23.1563C7.06131 23.1194 7.85366 23.0148 8.63282 22.8434C11.6634 22.0553 14.7997 20.15 17.4688 17.4688C20.1378 14.7875 22.0513 11.6634 22.8394 8.63282C23.0122 7.85378 23.1182 7.06143 23.1563 6.26438C23.1725 6.01778 23.1236 5.77125 23.0145 5.5495C22.9054 5.32775 22.74 5.13857 22.5347 5.00094L19.3781 2.89657C19.3301 2.86439 19.2735 2.84741 19.2156 2.84782H19.1384C19.0984 2.85824 19.0611 2.87703 19.0289 2.90294C18.9967 2.92885 18.9703 2.96129 18.9516 2.99813L16.3516 8.02344C16.3193 8.08576 16.3101 8.15752 16.3257 8.22596C16.3413 8.29439 16.3807 8.35507 16.4369 8.39719L17.5459 9.20969C17.922 9.48949 18.1826 9.89735 18.2784 10.3562C18.3742 10.815 18.2986 11.2931 18.0659 11.7C17.314 13.0143 16.3844 14.2187 15.3034 15.2791C14.2432 16.3601 13.0388 17.2897 11.7244 18.0416C11.3175 18.2743 10.8394 18.3498 10.3806 18.254C9.92173 18.1582 9.51387 17.8976 9.23407 17.5216L8.42157 16.4084C8.37945 16.3523 8.31877 16.3129 8.25034 16.2973C8.1819 16.2817 8.11014 16.2908 8.04782 16.3231L3.02251 18.9231C2.98573 18.9424 2.95339 18.9691 2.92761 19.0017C2.90182 19.0342 2.88315 19.0718 2.87281 19.112C2.86247 19.1522 2.86069 19.1942 2.86759 19.2351C2.87448 19.276 2.88989 19.3151 2.91282 19.3497L2.9047 19.3741Z" fill="black"/>
</svg>
