<svg width="20" height="20" viewBox="0 0 20 20" fill="none" xmlns="http://www.w3.org/2000/svg">
<g clip-path="url(#clip0_556_195)">
<path d="M16.9566 12.6477C15.9216 11.6127 14.6898 10.8466 13.3457 10.3828C14.7852 9.39134 15.7309 7.73206 15.7309 5.85583C15.7309 2.82676 13.2666 0.362396 10.2375 0.362396C7.20844 0.362396 4.74408 2.82676 4.74408 5.85583C4.74408 7.73206 5.6898 9.39134 7.12934 10.3828C5.7853 10.8466 4.55344 11.6127 3.51848 12.6477C1.72376 14.4424 0.735352 16.8286 0.735352 19.3667H2.22006C2.22006 14.9459 5.81667 11.3493 10.2375 11.3493C14.6584 11.3493 18.255 14.9459 18.255 19.3667H19.7397C19.7397 16.8286 18.7513 14.4424 16.9566 12.6477ZM10.2375 9.86456C8.02711 9.86456 6.22879 8.06627 6.22879 5.85583C6.22879 3.64539 8.02711 1.84711 10.2375 1.84711C12.4479 1.84711 14.2462 3.64539 14.2462 5.85583C14.2462 8.06627 12.4479 9.86456 10.2375 9.86456Z" fill="black"/>
</g>
<defs>
<clipPath id="clip0_556_195">
<rect width="19.0043" height="19.0043" fill="white" transform="translate(0.735352 0.362396)"/>
</clipPath>
</defs>
</svg>
