<svg width="66" height="66" viewBox="0 0 66 66" fill="none" xmlns="http://www.w3.org/2000/svg">
<g clip-path="url(#clip0_89_38)">
<path d="M56.43 9.48475C50.16 3.42375 41.91 0 33.1237 0C7.90625 0 -7.92825 27.3212 4.664 49.0545L0 66L17.4212 61.457C25.0112 65.5573 31.229 65.1943 33.1402 65.4362C62.381 65.4362 76.9367 30.0602 56.3887 9.592L56.43 9.48475Z" fill="white"/>
<path d="M33.1842 59.8153L33.1677 59.8126H33.1237C24.3732 59.8126 18.7824 55.6684 18.2324 55.4291L7.91992 58.1104L10.6837 48.0866L10.0264 47.0553C7.30392 42.7213 5.85742 37.7301 5.85742 32.5903C5.85742 8.40959 35.4062 -3.68216 52.5057 13.4091C69.5639 30.3216 57.5877 59.8153 33.1842 59.8153Z" fill="#4CAF50"/>
<path d="M48.1441 39.3442L48.1194 39.5505C47.2916 39.138 43.2601 37.1662 42.5094 36.894C40.8236 36.2697 41.2994 36.795 38.0626 40.502C37.5814 41.0382 37.1029 41.0795 36.2861 40.7082C35.4611 40.2957 32.8129 39.4295 29.6779 36.6245C27.2359 34.4382 25.5969 31.757 25.1129 30.932C24.3071 29.5405 25.9929 29.3425 27.5274 26.4385C27.8024 25.861 27.6621 25.4072 27.4586 24.9975C27.2524 24.585 25.6106 20.5425 24.9231 18.931C24.2631 17.325 23.5839 17.5285 23.0751 17.5285C21.4911 17.391 20.3334 17.413 19.3131 18.4745C14.8746 23.353 15.9939 28.3855 19.7916 33.737C27.2551 43.505 31.2316 45.3035 38.5026 47.8005C40.4661 48.4247 42.2564 48.3367 43.6726 48.1332C45.2511 47.883 48.5319 46.1505 49.2166 44.2117C49.9179 42.273 49.9179 40.6642 49.7116 40.293C49.5081 39.9217 48.9691 39.7155 48.1441 39.3442Z" fill="#FAFAFA"/>
</g>
<defs>
<clipPath id="clip0_89_38">
<rect width="66" height="66" fill="white"/>
</clipPath>
</defs>
</svg>
