<svg width="40" height="40" viewBox="0 0 40 40" fill="none" xmlns="http://www.w3.org/2000/svg">
<path fill-rule="evenodd" clip-rule="evenodd" d="M22.2276 2.08334H26.1059C28.0974 2.08332 29.6811 2.08331 30.9512 2.20407C32.2535 2.3279 33.3546 2.58745 34.3355 3.18854C35.3446 3.80696 36.1931 4.65544 36.8115 5.66461C37.4126 6.64549 37.6722 7.7466 37.796 9.04892C37.9168 10.319 37.9168 11.9027 37.9167 13.8942V15.2538C37.9167 16.6714 37.9168 17.7989 37.8544 18.7132C37.7906 19.6485 37.6573 20.4515 37.3458 21.2035C36.5846 23.0412 35.1246 24.5013 33.2869 25.2625C32.655 25.5243 31.9813 25.6617 31.2182 25.7365C31.2094 25.9687 31.1982 26.1894 31.1838 26.3995C31.1161 27.3929 30.9749 28.2394 30.6475 29.0297C29.844 30.9695 28.3029 32.5106 26.3631 33.3141C25.3683 33.7262 24.271 33.8469 22.8912 33.891C22.1488 33.9148 21.6742 33.9311 21.3137 33.9751C20.9729 34.0167 20.845 34.0722 20.7759 34.1131C20.699 34.1586 20.593 34.2419 20.408 34.4965C20.2083 34.7716 19.9821 35.1512 19.6238 35.7566L19.1914 36.4871C18.0632 38.3932 15.2704 38.3932 14.1422 36.4871L13.7098 35.7566C13.3515 35.1512 13.1253 34.7716 12.9256 34.4965C12.7406 34.2419 12.6346 34.1586 12.5577 34.1131C12.4886 34.0722 12.3607 34.0167 12.0199 33.9751C11.6594 33.9311 11.1848 33.9148 10.4424 33.891C9.06257 33.8469 7.96535 33.7262 6.97058 33.3141C5.03078 32.5106 3.48961 30.9695 2.68612 29.0297C2.35878 28.2394 2.21761 27.3929 2.14983 26.3995C2.08348 25.4271 2.08349 24.2268 2.0835 22.7124V21.2689C2.08348 19.1413 2.08347 17.4553 2.21191 16.1045C2.34341 14.7215 2.61831 13.5612 3.25009 12.5302C3.90287 11.465 4.79848 10.5694 5.86371 9.91661C6.89469 9.28482 8.05494 9.00992 9.43798 8.87842C9.78955 8.84499 10.1638 8.82027 10.5627 8.80197C10.6961 7.60224 10.962 6.57841 11.5219 5.66461C12.1404 4.65544 12.9888 3.80696 13.998 3.18854C14.9789 2.58745 16.08 2.3279 17.3823 2.20407C18.6524 2.08331 20.2361 2.08332 22.2276 2.08334ZM13.089 8.752C13.567 8.75 14.0709 8.75 14.6023 8.75H18.7313C20.859 8.74999 22.5449 8.74998 23.8957 8.87842C25.2787 9.00992 26.439 9.28482 27.4699 9.91661C28.5352 10.5694 29.4308 11.465 30.0836 12.5302C30.7153 13.5612 30.9903 14.7215 31.1217 16.1045C31.2502 17.4553 31.2502 19.1412 31.2502 21.2689V22.7124C31.2502 22.8846 31.2502 23.0527 31.2501 23.2169C31.7091 23.1574 32.0439 23.0714 32.3302 22.9528C33.5553 22.4454 34.5287 21.472 35.0361 20.2468C35.2004 19.8502 35.305 19.351 35.3602 18.543C35.4161 17.7238 35.4167 16.6816 35.4167 15.2084V13.9584C35.4167 11.8883 35.4154 10.4235 35.3072 9.28555C35.2008 8.16623 34.9999 7.49291 34.6799 6.97086C34.2677 6.29807 33.702 5.73242 33.0292 5.32014C32.5072 5.00022 31.8339 4.79927 30.7146 4.69285C29.5766 4.58466 28.1118 4.58334 26.0417 4.58334H22.2917C20.2216 4.58334 18.7568 4.58466 17.6189 4.69285C16.4996 4.79927 15.8263 5.00022 15.3043 5.32014C14.6315 5.73242 14.0658 6.29807 13.6535 6.97085C13.3859 7.40755 13.204 7.94479 13.089 8.752ZM9.67461 11.3672C8.47457 11.4813 7.74212 11.6976 7.16996 12.0482C6.44112 12.4948 5.82833 13.1076 5.3817 13.8365C5.03108 14.4086 4.81478 15.1411 4.70068 16.3411C4.58482 17.5598 4.5835 19.1269 4.5835 21.3334V22.6667C4.5835 24.237 4.58417 25.3521 4.64403 26.2294C4.70312 27.0954 4.81569 27.6381 4.99582 28.073C5.54558 29.4002 6.60006 30.4547 7.9273 31.0044C8.48427 31.2351 9.20186 31.3501 10.5223 31.3923L10.5741 31.394C11.2498 31.4155 11.8375 31.4343 12.3226 31.4935C12.8397 31.5566 13.3477 31.6758 13.8305 31.9614C14.3056 32.2424 14.6488 32.615 14.9483 33.0273C15.2254 33.4088 15.5109 33.8912 15.8345 34.4381L16.2936 35.2137C16.3693 35.3415 16.5014 35.4167 16.6668 35.4167C16.8322 35.4167 16.9643 35.3415 17.04 35.2137L17.4991 34.438C17.8227 33.8912 18.1082 33.4088 18.3853 33.0273C18.6848 32.615 19.028 32.2424 19.5031 31.9614C19.9859 31.6758 20.4939 31.5566 21.011 31.4935C21.4961 31.4343 22.0838 31.4155 22.7595 31.394L22.8113 31.3923C24.1318 31.3501 24.8494 31.2351 25.4064 31.0044C26.7336 30.4547 27.7881 29.4002 28.3378 28.073C28.518 27.6381 28.6305 27.0954 28.6896 26.2294C28.7495 25.3521 28.7502 24.237 28.7502 22.6667V21.3334C28.7502 19.1269 28.7488 17.5598 28.633 16.3411C28.5189 15.1411 28.3026 14.4086 27.952 13.8365C27.5053 13.1076 26.8925 12.4948 26.1637 12.0482C25.5915 11.6976 24.8591 11.4813 23.659 11.3672C22.4404 11.2513 20.8733 11.25 18.6668 11.25H14.6668C12.4603 11.25 10.8932 11.2513 9.67461 11.3672Z" fill="white"/>
<path d="M12.5002 21.6667C12.5002 22.5871 11.754 23.3333 10.8335 23.3333C9.91302 23.3333 9.16683 22.5871 9.16683 21.6667C9.16683 20.7462 9.91302 20 10.8335 20C11.754 20 12.5002 20.7462 12.5002 21.6667Z" fill="white"/>
<path d="M18.3335 21.6667C18.3335 22.5871 17.5873 23.3333 16.6668 23.3333C15.7464 23.3333 15.0002 22.5871 15.0002 21.6667C15.0002 20.7462 15.7464 20 16.6668 20C17.5873 20 18.3335 20.7462 18.3335 21.6667Z" fill="white"/>
<path d="M24.1668 21.6667C24.1668 22.5871 23.4206 23.3333 22.5002 23.3333C21.5797 23.3333 20.8335 22.5871 20.8335 21.6667C20.8335 20.7462 21.5797 20 22.5002 20C23.4206 20 24.1668 20.7462 24.1668 21.6667Z" fill="white"/>
</svg>
