<svg width="138" height="76" viewBox="0 0 138 76" fill="none" xmlns="http://www.w3.org/2000/svg">
<g clip-path="url(#clip0_63_238)">
<path d="M26.5167 21.2208C26.5167 21.2208 26.3288 21.1626 26.2484 21.0529C26.4042 20.8876 26.5061 20.7897 26.6607 20.6136C27.4817 19.6791 27.552 18.6269 27.1298 17.5058C26.927 16.9674 26.6047 16.4954 26.271 16.0317C26.0616 15.7406 25.8497 15.4513 25.6449 15.1571C25.3286 14.7028 25.1727 14.2093 25.2034 13.643C25.243 12.9115 25.4348 12.6894 26.1686 12.6443C26.2481 12.6394 26.3329 12.6573 26.4052 12.5897C26.3621 12.0463 26.2564 11.5041 26.2864 10.9509C26.3409 9.94459 26.5419 8.98362 27.1175 8.13217C27.6696 7.31554 28.4337 6.78346 29.37 6.51212C29.714 6.41239 29.9724 6.29106 29.9888 5.89046C29.9913 5.82836 30.0075 5.75005 30.0476 5.70885C30.3767 5.37137 30.1986 5.04229 30.012 4.74063C29.8051 4.4063 29.4561 4.42547 29.1327 4.51044C28.7522 4.61032 28.4185 4.82216 28.089 5.03508C27.4874 5.42381 26.9296 5.87756 26.2934 6.21576C25.3598 6.71207 24.3677 6.88923 23.3218 6.81166C23.2821 6.80871 23.2604 6.79115 23.254 6.71143C23.4672 6.65482 23.6896 6.59579 23.9119 6.53673C24.038 6.41963 24.2061 6.426 24.3577 6.38474C24.4622 6.35181 24.5618 6.30158 24.6184 6.30821C24.7358 6.27255 24.6762 6.25052 24.6723 6.25346C24.5572 6.34129 24.4091 6.34731 24.2788 6.40275C24.123 6.43841 23.9631 6.42183 23.8062 6.44214C23.245 6.40849 22.6739 6.4952 22.1244 6.31419C22.1346 6.2282 22.1848 6.19096 22.2538 6.18129C22.8796 6.09346 23.3703 5.75498 23.8239 5.3433C24.6696 4.57554 25.2705 3.62882 25.8122 2.63759C26.1824 1.96014 26.6413 1.35246 27.2107 0.826616C28.1747 -0.0636947 29.4951 -0.266787 30.4889 0.372861C31.2235 0.845626 31.6286 1.57013 31.8439 2.39769C32.0655 3.24943 32.1761 4.11458 32.0746 4.99889C32.0275 5.40847 32.038 5.43104 32.4069 5.5708C32.5865 5.6389 32.6673 5.75926 32.7181 5.91544C32.7945 6.14998 32.9389 6.28215 33.179 6.3657C34.9932 6.99722 35.938 8.34147 36.266 10.1817C36.412 11.0012 36.3872 11.8255 36.3164 12.6513C36.4765 12.7213 36.6143 12.6322 36.7571 12.6407C37.2196 12.6684 37.4439 12.8815 37.4562 13.3454C37.4628 13.5942 37.3966 13.8266 37.2834 14.05C37.0908 14.4303 36.8355 14.7689 36.5974 15.1194C36.1669 15.753 35.7032 16.3758 35.5597 17.1498C35.3773 18.1339 35.3444 19.1139 35.7536 20.065C35.9122 20.4338 36.1483 20.738 36.4395 21.004C36.6571 21.2053 36.9391 21.3227 37.2352 21.3351C37.6583 21.3561 38.0819 21.3678 38.5059 21.3703C39.5216 21.3751 40.3859 21.7191 41.0513 22.502C41.1526 22.6211 41.2434 22.7006 41.4075 22.7168C44.115 22.9841 45.8686 24.5804 47.1381 26.8474C47.2407 27.0307 47.3443 27.2134 47.4475 27.3964C48.1584 29.0576 47.9746 30.7253 47.4125 32.3655C46.689 34.4766 45.192 35.7635 43.034 36.3132C41.188 36.7835 39.3278 36.8074 37.4544 36.5669C37.3447 36.582 37.2322 36.5963 37.356 36.7443C38.5102 37.6292 39.8083 38.2177 41.1993 38.616C41.5725 38.7228 41.5775 38.726 41.5759 39.1009C41.5598 43.1154 41.0606 47.0578 39.7705 50.8748C39.0432 53.0268 38.0095 55.017 36.4475 56.6905C35.0418 58.1966 33.5006 59.5502 31.7944 60.7145C29.0922 62.5582 26.1444 63.8782 23.0458 64.8875C20.6742 65.66 18.2517 66.2338 15.8182 66.7663C13.1795 67.3435 10.5202 67.8348 7.93149 68.6228C6.43111 69.0795 4.9753 69.6393 3.64651 70.4964C1.9288 71.6043 0.765133 73.1121 0.25504 75.1058C0.238976 75.1686 0.216479 75.2298 0.19698 75.2918C-0.0387683 75.2577 0.0806957 75.1057 0.0962295 74.9881C0.0991718 73.7602 0.437772 72.6032 0.900186 71.4869C1.71874 69.5108 2.98104 67.8512 4.5689 66.4202C6.07318 65.0646 7.76241 63.9996 9.57152 63.1177C11.3471 62.2519 13.2135 61.624 15.1045 61.0605C17.0529 60.48 18.8156 59.5534 20.2785 58.114C21.7209 56.6946 22.6497 54.9819 23.1609 53.0303C23.4511 51.9229 23.6014 50.8011 23.6481 49.656C23.7845 46.3023 23.1165 43.0901 22.0078 39.9498C21.9994 39.9164 21.9939 39.8823 21.9914 39.8479C22.1526 39.6709 22.3974 39.6589 22.5997 39.5625C23.6735 39.0505 24.5811 38.313 25.4419 37.5084C26.6619 36.3683 27.6811 35.0519 28.7297 33.7613C29.6287 32.6548 30.6421 31.6665 31.8109 30.848C33.0858 29.9552 34.4894 29.3865 36.0414 29.1786C36.9039 29.0631 37.7643 29.1129 38.6264 29.1157C39.2264 29.1404 39.0618 29.0671 39.3186 29.1122C39.4429 29.144 39.5672 29.1776 39.6979 29.1595C39.7577 29.1608 39.8188 29.1576 39.8688 29.1903C39.8678 29.1918 39.8739 29.1925 39.8745 29.1982C39.8519 29.1798 39.8261 29.1656 39.7984 29.1563C39.6821 29.1417 39.5715 29.1209 39.4671 29.0671C38.2587 28.4445 36.97 28.1655 35.6182 28.0393C34.0859 27.8962 32.593 28.0998 31.0939 28.3276C29.2944 28.6009 27.7645 29.4357 26.3915 30.5969C25.356 31.4727 24.4254 32.4601 23.4243 33.3728C22.5508 34.1692 21.642 34.9039 20.5401 35.3673C19.2559 35.9073 17.9903 35.8124 16.739 35.2648C15.743 34.8289 14.8249 34.2774 14.1174 33.4271C13.3264 32.1068 13.3141 30.7436 13.9122 29.3569C14.2085 28.6645 14.6422 28.0395 15.1869 27.5199C15.3789 27.3367 15.5122 27.1278 15.6226 26.884C16.6967 24.5113 18.5159 23.0779 21.0817 22.6211C21.5097 22.5449 21.8822 22.3747 22.2543 22.1739C22.9881 21.778 23.7515 21.4555 24.5773 21.308C25.1433 21.207 25.716 21.2311 26.2724 21.4291C26.8288 21.6271 26.9587 21.9144 27.3891 21.9816C27.5118 22.0499 27.6701 22.0324 27.7809 22.1071C27.7752 22.103 27.7927 22.116 27.7927 22.116C27.7927 22.116 27.7773 22.1044 27.7714 22.1008C27.6777 22.0259 27.7927 21.864 27.6007 21.723C27.107 21.4291 26.9948 21.361 26.5167 21.2209" fill="#68349A"/>
<path d="M14.1176 33.4274C14.32 33.321 14.3663 33.5313 14.4468 33.6147C15.2355 34.4323 16.2075 34.9585 17.2573 35.3275C18.601 35.7997 19.89 35.6509 21.1435 34.9297C22.0577 34.4037 22.8313 33.7275 23.5997 33.0229C24.3324 32.3514 25.017 31.6293 25.7554 30.9672C26.614 30.1974 27.5306 29.498 28.5768 28.982C29.4473 28.5528 30.3698 28.3014 31.3156 28.1465C32.4672 27.9577 33.6322 27.8124 34.799 27.8469C36.3134 27.8915 37.8031 28.1292 39.1979 28.77C39.4454 28.8837 39.6861 29.0246 39.8945 29.2085L39.895 29.208L39.6993 29.2105C39.5776 29.2632 39.478 29.1728 39.3665 29.1591C39.2265 29.0466 39.1089 29.0862 38.9115 29.0127C38.341 28.8005 37.7419 28.7337 37.1427 28.6976C34.9103 28.5631 32.8519 29.1262 30.9423 30.2747C29.908 30.8975 28.9529 31.6436 28.098 32.4967C26.8484 33.7396 25.5615 34.9415 24.1042 35.9417C23.1872 36.5711 22.2194 37.0955 21.1221 37.3622C19.8327 37.6757 18.6343 37.4565 17.5055 36.8057C16.6522 36.3137 15.9311 35.6567 15.2613 34.9361C14.8824 34.5284 14.5123 34.1183 14.2163 33.646C14.1743 33.5789 14.15 33.5005 14.1176 33.4274" fill="#68349A"/>
<path d="M37.2487 36.545C37.3696 36.4227 37.5302 36.4443 37.6651 36.4706C38.5542 36.6444 39.4514 36.556 40.3439 36.5559C41.7283 36.558 43.0972 36.264 44.3589 35.6937C45.6855 35.097 46.5553 34.0472 47.1308 32.7402C47.6662 31.5237 47.8141 30.2371 47.7257 28.9234C47.6998 28.5387 47.5902 28.1582 47.5011 27.7799C47.4709 27.6516 47.4393 27.5282 47.4475 27.3965C48.9934 29.1989 49.6097 31.8556 47.9418 34.1895C46.6609 35.9818 44.9183 37.0153 42.7535 37.3548C40.9857 37.6321 39.2865 37.3368 37.6252 36.7324C37.5336 36.6991 37.4416 36.6671 37.3498 36.6346C37.3264 36.6302 37.3046 36.6196 37.2868 36.6038C37.269 36.588 37.2558 36.5676 37.2487 36.5449" fill="#68349A"/>
<path d="M38.09 4.16762C37.9519 3.96765 37.892 3.75033 37.8326 3.53673C37.7607 3.2782 37.6136 3.11291 37.3506 3.04002C37.1317 2.97924 36.9114 2.91487 36.6943 2.78129C36.8899 2.58039 37.1582 2.55223 37.3896 2.46589C37.6109 2.38317 37.7456 2.2652 37.8062 2.03713C37.8647 1.81744 37.9441 1.60248 38.0781 1.38623C38.3026 1.54307 38.3258 1.80425 38.3936 2.01746C38.4731 2.26761 38.6073 2.39071 38.8468 2.47105C39.0738 2.54709 39.3195 2.59772 39.5091 2.75917C39.4967 2.82255 39.4491 2.83266 39.4067 2.84125C38.7375 2.9769 38.3135 3.35553 38.1984 4.04812C38.192 4.08678 38.1372 4.1173 38.09 4.16758" fill="white"/>
<path d="M41.2582 19.0275C41.1999 18.3049 40.7887 18.0134 40.1735 17.8903C40.4269 17.6286 40.7553 17.6756 40.9498 17.4896C41.1546 17.2936 41.1283 16.9739 41.2973 16.7368C41.4609 16.8129 41.4877 16.9872 41.5166 17.1214C41.5846 17.4382 41.7846 17.5791 42.0709 17.6592C42.1875 17.6918 42.3178 17.7175 42.4463 17.8484C42.17 17.9753 41.892 18.0441 41.6949 18.2096C41.4888 18.3826 41.5131 18.7235 41.2582 19.0275Z" fill="white"/>
<path d="M44.4493 38.759C44.5546 39.3429 44.8178 39.6781 45.3738 39.7267C45.1878 39.9955 44.8915 39.9401 44.7235 40.1064C44.5547 40.2734 44.5912 40.5399 44.4165 40.7426C44.2182 40.5784 44.2671 40.2843 44.0949 40.1199C43.9245 39.957 43.6756 39.9558 43.4603 39.8236C43.6176 39.6046 43.911 39.6564 44.0801 39.4935C44.2526 39.3274 44.2373 39.0697 44.4492 38.7591" fill="white"/>
<path d="M18.1583 19.6442C18.3686 19.4614 18.6353 19.4856 18.7995 19.3267C18.9597 19.1715 18.937 18.9027 19.1186 18.7119C19.3054 18.8968 19.2793 19.1675 19.4389 19.3224C19.6032 19.4816 19.8739 19.4505 20.0928 19.6699C19.6029 19.7821 19.2355 20.0088 19.1966 20.5827C18.9358 20.4009 18.9797 20.0919 18.8062 19.9541C18.6339 19.8174 18.4019 19.756 18.1583 19.6442" fill="white"/>
<path d="M20.1086 47.5371C20.2183 47.7704 20.2696 48.0147 20.4183 48.1579C20.5711 48.305 20.819 48.3532 21.1332 48.4926C20.5814 48.6206 20.2027 48.8365 20.1712 49.4255C19.8921 49.2327 19.9545 48.913 19.7694 48.7799C19.5896 48.6505 19.3617 48.5882 19.1366 48.4883C19.3127 48.2754 19.6119 48.3348 19.7787 48.1566C19.9314 47.9936 19.9094 47.7277 20.1086 47.5371Z" fill="white"/>
<path d="M0.0964035 74.9881C0.130267 75.0892 0.0738704 75.2204 0.19719 75.2918C0.229574 75.4462 0.132515 75.5605 0.0572035 75.6899C0.0236871 75.4523 -0.0570704 75.2165 0.0964035 74.988" fill="white"/>
<path d="M24.3942 6.43741L23.9121 6.53676C23.8768 6.50522 23.8416 6.47369 23.8064 6.44219C23.9519 6.30557 24.1387 6.37601 24.3048 6.34284C24.3999 6.31252 24.4229 6.35049 24.3942 6.43741Z" fill="white"/>
<path d="M24.3943 6.43741L24.3049 6.34288C24.4358 6.21846 24.582 6.25723 24.7645 6.27701C24.6404 6.40476 24.5089 6.40024 24.3943 6.43747" fill="white"/>
</g>
<path d="M74.2069 33.9724C74.0076 33.3471 73.7397 32.7872 73.403 32.2925C73.0732 31.791 72.6782 31.365 72.2178 31.0146C71.7575 30.6573 71.2319 30.3859 70.6411 30.2004C70.0571 30.0149 69.4147 29.9222 68.7139 29.9222C67.5252 29.9222 66.4534 30.2279 65.4984 30.8394C64.5434 31.4509 63.7876 32.3475 63.2311 33.5292C62.6815 34.7041 62.4067 36.1435 62.4067 37.8474C62.4067 39.5581 62.6849 41.0044 63.2414 42.1861C63.798 43.3679 64.5606 44.2645 65.5293 44.876C66.4981 45.4875 67.6008 45.7932 68.8375 45.7932C69.9849 45.7932 70.9846 45.5596 71.8365 45.0924C72.6954 44.6252 73.3584 43.9656 73.8256 43.1137C74.2996 42.2548 74.5367 41.2449 74.5367 40.0837L75.3611 40.2383H69.3219V37.6103H77.6181V40.0116C77.6181 41.7842 77.2402 43.3232 76.4845 44.6286C75.7356 45.9272 74.6981 46.9303 73.3721 47.6379C72.053 48.3456 70.5414 48.6995 68.8375 48.6995C66.9275 48.6995 65.2511 48.2597 63.8083 47.3803C62.3723 46.5009 61.2524 45.2539 60.4485 43.6393C59.6447 42.0178 59.2428 40.0941 59.2428 37.868C59.2428 36.1847 59.4764 34.6732 59.9436 33.3334C60.4108 31.9936 61.0669 30.8566 61.912 29.9222C62.7639 28.9809 63.7636 28.2629 64.911 27.7682C66.0652 27.2667 67.326 27.0159 68.6932 27.0159C69.8338 27.0159 70.8953 27.1842 71.8778 27.5209C72.8671 27.8575 73.7466 28.3351 74.5161 28.9534C75.2924 29.5718 75.9348 30.3069 76.4433 31.1589C76.9517 32.0039 77.2952 32.9418 77.4738 33.9724H74.2069ZM88.2357 48.7304C86.6761 48.7304 85.3329 48.3971 84.2062 47.7307C83.0862 47.0574 82.2206 46.1127 81.6091 44.8966C81.0045 43.6736 80.7022 42.2411 80.7022 40.599C80.7022 38.9776 81.0045 37.5485 81.6091 36.3118C82.2206 35.0751 83.0725 34.1098 84.1649 33.4158C85.2642 32.7219 86.549 32.375 88.0193 32.375C88.9125 32.375 89.7782 32.5227 90.6164 32.8181C91.4546 33.1135 92.2069 33.5773 92.8734 34.2094C93.5398 34.8415 94.0654 35.6625 94.4502 36.6725C94.8349 37.6756 95.0273 38.8951 95.0273 40.3311V41.4235H82.4438V39.115H92.0077C92.0077 38.3043 91.8428 37.5863 91.513 36.9611C91.1832 36.329 90.7195 35.8309 90.1217 35.4667C89.5309 35.1026 88.8369 34.9205 88.0399 34.9205C87.1742 34.9205 86.4185 35.1335 85.7726 35.5595C85.1337 35.9786 84.639 36.5282 84.2886 37.2084C83.9451 37.8817 83.7733 38.6134 83.7733 39.4036V41.2071C83.7733 42.2652 83.9588 43.1652 84.3298 43.9072C84.7077 44.6492 85.2333 45.2161 85.9066 45.6077C86.5799 45.9924 87.3666 46.1848 88.2667 46.1848C88.8507 46.1848 89.3831 46.1024 89.8641 45.9375C90.345 45.7657 90.7607 45.5115 91.1111 45.1748C91.4615 44.8382 91.7294 44.4225 91.9149 43.9278L94.8315 44.4534C94.5979 45.3123 94.1788 46.0646 93.5742 46.7104C92.9764 47.3494 92.2241 47.8475 91.3172 48.2048C90.4172 48.5552 89.39 48.7304 88.2357 48.7304ZM101.528 39.0119V48.4109H98.4463V32.5811H101.404V35.1575H101.6C101.964 34.3193 102.534 33.646 103.311 33.1376C104.094 32.6292 105.08 32.375 106.268 32.375C107.347 32.375 108.292 32.6017 109.103 33.0551C109.913 33.5017 110.542 34.1682 110.989 35.0545C111.435 35.9408 111.658 37.0366 111.658 38.3421V48.4109H108.577V38.7131C108.577 37.5657 108.278 36.6691 107.68 36.0232C107.083 35.3705 106.262 35.0442 105.217 35.0442C104.503 35.0442 103.867 35.1988 103.311 35.5079C102.761 35.8171 102.325 36.2706 102.002 36.8683C101.686 37.4592 101.528 38.1737 101.528 39.0119ZM115.791 48.4109V32.5811H118.873V48.4109H115.791ZM117.347 30.1386C116.811 30.1386 116.351 29.9599 115.966 29.6027C115.588 29.2385 115.399 28.8057 115.399 28.3041C115.399 27.7957 115.588 27.3629 115.966 27.0056C116.351 26.6415 116.811 26.4594 117.347 26.4594C117.883 26.4594 118.34 26.6415 118.718 27.0056C119.103 27.3629 119.295 27.7957 119.295 28.3041C119.295 28.8057 119.103 29.2385 118.718 29.6027C118.34 29.9599 117.883 30.1386 117.347 30.1386ZM129.841 48.7304C128.281 48.7304 126.938 48.3971 125.811 47.7307C124.691 47.0574 123.825 46.1127 123.214 44.8966C122.609 43.6736 122.307 42.2411 122.307 40.599C122.307 38.9776 122.609 37.5485 123.214 36.3118C123.825 35.0751 124.677 34.1098 125.77 33.4158C126.869 32.7219 128.154 32.375 129.624 32.375C130.517 32.375 131.383 32.5227 132.221 32.8181C133.059 33.1135 133.812 33.5773 134.478 34.2094C135.145 34.8415 135.67 35.6625 136.055 36.6725C136.44 37.6756 136.632 38.8951 136.632 40.3311V41.4235H124.049V39.115H133.612C133.612 38.3043 133.448 37.5863 133.118 36.9611C132.788 36.329 132.324 35.8309 131.727 35.4667C131.136 35.1026 130.442 34.9205 129.645 34.9205C128.779 34.9205 128.023 35.1335 127.377 35.5595C126.738 35.9786 126.244 36.5282 125.893 37.2084C125.55 37.8817 125.378 38.6134 125.378 39.4036V41.2071C125.378 42.2652 125.564 43.1652 125.935 43.9072C126.312 44.6492 126.838 45.2161 127.511 45.6077C128.185 45.9924 128.971 46.1848 129.871 46.1848C130.455 46.1848 130.988 46.1024 131.469 45.9375C131.95 45.7657 132.365 45.5115 132.716 45.1748C133.066 44.8382 133.334 44.4225 133.52 43.9278L136.436 44.4534C136.203 45.3123 135.784 46.0646 135.179 46.7104C134.581 47.3494 133.829 47.8475 132.922 48.2048C132.022 48.5552 130.995 48.7304 129.841 48.7304Z" fill="#68349A"/>
<defs>
<clipPath id="clip0_63_238">
<rect width="48.9293" height="75.6902" fill="white"/>
</clipPath>
</defs>
</svg>
