<svg width="108" height="32" viewBox="0 0 108 32" fill="none" xmlns="http://www.w3.org/2000/svg">
<g id="Group 6900" clip-path="url(#clip0_103_79)">
<path id="Path 69" d="M22.5208 11.6965C22.5722 12.349 22.5979 13.3147 22.5979 14.5936C22.5979 15.8724 22.5722 16.8381 22.5208 17.4906C22.3117 20.9096 21.2508 23.5646 19.3379 25.4556C17.4251 27.3465 14.6345 28.2933 10.966 28.2958H1.06127C0.921923 28.2972 0.783768 28.2701 0.65533 28.2162C0.526893 28.1624 0.410894 28.0829 0.314486 27.9826C0.213856 27.8866 0.134041 27.7711 0.0799616 27.6431C0.0258825 27.5152 -0.00131402 27.3776 4.87971e-05 27.2388V1.94831C-0.00131402 1.80951 0.0258825 1.6719 0.0799616 1.54397C0.134041 1.41604 0.213856 1.3005 0.314486 1.20447C0.410894 1.10424 0.526893 1.02474 0.65533 0.970874C0.783768 0.917009 0.921923 0.88992 1.06127 0.891277H10.7718C14.5189 0.891277 17.3619 1.83803 19.3009 3.73152C21.24 5.62502 22.3133 8.28001 22.5208 11.6965ZM5.30541 5.78571V23.4029H10.7688C12.8388 23.4029 14.4043 22.8679 15.4653 21.7978C16.5678 20.6303 17.1919 19.0941 17.2147 17.4914C17.2661 16.8389 17.2918 15.8732 17.2918 14.5943C17.2918 13.3154 17.2661 12.3498 17.2147 11.6973C17.192 10.0877 16.5539 8.54733 15.4306 7.39007C14.3429 6.31999 12.7245 5.78495 10.5753 5.78495L5.30541 5.78571ZM44.2964 16.4743C44.3226 16.7353 44.3357 17.2833 44.3357 18.1185C44.3357 18.9537 44.3226 19.5018 44.2964 19.7628C44.3199 22.1267 43.4739 24.4173 41.9181 26.2025C40.4117 27.859 38.2959 28.6873 35.5708 28.6873C32.8456 28.6873 30.7306 27.8585 29.2258 26.2009C27.6702 24.4157 26.8244 22.125 26.8482 19.7613L26.8058 18.117L26.8451 16.4727C26.822 14.1083 27.6689 11.8173 29.2258 10.0323C30.7322 8.37469 32.8479 7.5459 35.5731 7.5459C38.2982 7.5459 40.414 8.37469 41.9204 10.0323C43.4759 11.8183 44.3211 14.1099 44.2964 16.4743ZM35.5708 9.81886C34.737 9.78431 33.9053 9.92511 33.1298 10.2321C32.3543 10.5391 31.6525 11.0054 31.07 11.6005C29.8484 13.0036 29.1968 14.8104 29.2427 16.6669L29.2034 18.1155L29.2427 19.564C29.1968 21.4206 29.8484 23.2273 31.07 24.6304C31.6525 25.2256 32.3543 25.6918 33.1298 25.9988C33.9053 26.3058 34.737 26.4466 35.5708 26.412C36.4045 26.4466 37.2362 26.3058 38.0117 25.9988C38.7872 25.6918 39.489 25.2256 40.0715 24.6304C41.2931 23.2273 41.9447 21.4206 41.8988 19.564C41.925 19.303 41.9381 18.8201 41.9381 18.1155C41.9381 17.4108 41.925 16.9279 41.8988 16.6669C41.9447 14.8104 41.2931 13.0036 40.0715 11.6005C39.4892 11.0051 38.7874 10.5385 38.0119 10.2313C37.2364 9.92401 36.4046 9.78297 35.5708 9.81733V9.81886ZM51.1747 19.4911C51.2533 21.84 51.8496 23.582 52.9635 24.7171C53.555 25.295 54.2603 25.7447 55.0349 26.0379C55.8095 26.331 56.6366 26.4613 57.4642 26.4205C58.7213 26.4691 59.9651 26.1488 61.0409 25.4993C62.0909 24.742 62.8638 23.6638 63.242 22.4288C63.3266 22.1931 63.4529 21.9745 63.615 21.7832C63.7742 21.6515 63.9792 21.588 64.1853 21.6067H64.7356C64.9706 21.6063 65.1964 21.6978 65.3645 21.8615C65.4501 21.9348 65.5164 22.0278 65.5578 22.1324C65.5992 22.237 65.6143 22.3501 65.6018 22.4618C65.5377 23.5152 65.199 24.5338 64.6192 25.4172C63.9421 26.4349 62.9969 27.2476 61.8871 27.7662C60.5058 28.4155 58.9902 28.7311 57.4635 28.6873C54.7404 28.6873 52.631 27.8977 51.1354 26.3184C49.6398 24.7391 48.8537 22.5271 48.7771 19.6822L48.7378 18.1162L48.7771 16.5502C48.8557 13.7054 49.6418 11.4933 51.1354 9.91405C52.629 8.33477 54.7383 7.54564 57.4635 7.54667C58.9895 7.50328 60.5042 7.81887 61.8848 8.46783C62.9946 8.98641 63.9397 9.79904 64.6169 10.8168C65.1974 11.6997 65.5368 12.718 65.6018 13.7714C65.6156 13.8841 65.6014 13.9985 65.5602 14.1044C65.5191 14.2103 65.4524 14.3045 65.366 14.3786C65.1979 14.5423 64.9722 14.6338 64.7371 14.6335H64.1869C63.9809 14.6524 63.7758 14.5891 63.6166 14.4577C63.4544 14.2662 63.3281 14.0473 63.2435 13.8113C62.8653 12.5763 62.0925 11.4981 61.0425 10.7408C59.9666 10.0913 58.7229 9.77098 57.4658 9.81963C56.6382 9.77881 55.811 9.90908 55.0364 10.2022C54.2618 10.4954 53.5566 10.9451 52.965 11.523C51.8516 12.6586 51.2554 14.4009 51.1763 16.7498L51.1369 18.1201L51.1747 19.4911ZM73.6169 2.88713C73.622 3.00372 73.6018 3.12004 73.5576 3.22814C73.5134 3.33624 73.4464 3.43358 73.361 3.51352C73.1838 3.67269 72.9514 3.75693 72.7129 3.74841H71.2201C71.1047 3.75399 70.9894 3.73604 70.8813 3.69564C70.7731 3.65525 70.6744 3.59327 70.5912 3.51352C70.5111 3.43061 70.4489 3.33229 70.4084 3.22458C70.3678 3.11686 70.3498 3.00203 70.3554 2.88713V1.39945C70.3468 1.16192 70.4314 0.930387 70.5912 0.75387C70.6715 0.668841 70.7692 0.602057 70.8777 0.558075C70.9862 0.514094 71.103 0.493951 71.2201 0.499018H72.7137C72.8334 0.495225 72.9527 0.515876 73.0642 0.559704C73.1756 0.603532 73.2769 0.669608 73.3618 0.75387C73.4464 0.838409 73.5127 0.939293 73.5567 1.05032C73.6007 1.16134 73.6215 1.28015 73.6177 1.39945L73.6169 2.88713ZM73.1853 27.4345C73.1909 27.5494 73.1729 27.6643 73.1323 27.772C73.0918 27.8797 73.0296 27.978 72.9495 28.0609C72.8663 28.1407 72.7675 28.2027 72.6594 28.2431C72.5513 28.2834 72.436 28.3014 72.3206 28.2958H71.6524C71.5371 28.3014 71.4218 28.2834 71.3136 28.2431C71.2055 28.2027 71.1068 28.1407 71.0236 28.0609C70.9435 27.978 70.8813 27.8797 70.8407 27.772C70.8002 27.6643 70.7821 27.5494 70.7877 27.4345V8.79791C70.7821 8.68301 70.8002 8.56818 70.8407 8.46046C70.8813 8.35275 70.9435 8.25442 71.0236 8.17152C71.1068 8.09176 71.2055 8.02979 71.3136 7.9894C71.4218 7.949 71.5371 7.93105 71.6524 7.93663H72.3206C72.436 7.93105 72.5513 7.949 72.6594 7.9894C72.7675 8.02979 72.8663 8.09176 72.9495 8.17152C73.0296 8.25442 73.0918 8.35275 73.1323 8.46046C73.1729 8.56818 73.1909 8.68301 73.1853 8.79791V27.4345ZM83.4831 21.6005C83.4086 22.7495 83.6604 23.8961 84.2099 24.909C84.479 25.2901 84.8441 25.5938 85.2686 25.7896C85.693 25.9854 86.1617 26.0664 86.6275 26.0244H88.75C88.8653 26.0188 88.9806 26.0368 89.0887 26.0772C89.1969 26.1176 89.2956 26.1795 89.3788 26.2593C89.4589 26.3422 89.5211 26.4405 89.5617 26.5482C89.6022 26.6559 89.6203 26.7708 89.6147 26.8857V27.4338C89.6203 27.5487 89.6022 27.6635 89.5617 27.7712C89.5211 27.8789 89.4589 27.9773 89.3788 28.0602C89.2956 28.1399 89.1969 28.2019 89.0887 28.2423C88.9806 28.2827 88.8653 28.3006 88.75 28.2951H86.431C84.492 28.2951 83.1163 27.7142 82.304 26.5525C81.4165 25.1149 80.9914 23.4414 81.0855 21.7563V10.2088H78.0198C77.9044 10.2144 77.7891 10.1964 77.681 10.1561C77.5729 10.1157 77.4741 10.0537 77.3909 9.97393C77.3108 9.89103 77.2486 9.7927 77.2081 9.68499C77.1675 9.57727 77.1495 9.46244 77.1551 9.34754V8.79791C77.1495 8.68301 77.1675 8.56818 77.2081 8.46046C77.2486 8.35275 77.3108 8.25442 77.3909 8.17152C77.4741 8.09176 77.5729 8.02979 77.681 7.9894C77.7891 7.949 77.9044 7.93105 78.0198 7.93663H81.0855V1.35953C81.0799 1.24463 81.098 1.1298 81.1385 1.02208C81.1791 0.91437 81.2413 0.816048 81.3214 0.733146C81.4046 0.653389 81.5033 0.591411 81.6115 0.551018C81.7196 0.510625 81.8349 0.492667 81.9503 0.498248H82.6184C82.7346 0.492847 82.8507 0.511323 82.9594 0.552526C83.0681 0.59373 83.1672 0.656779 83.2504 0.73775C83.3305 0.820651 83.3927 0.918976 83.4332 1.02669C83.4738 1.1344 83.4918 1.24924 83.4862 1.36414V7.94123H88.36C88.4753 7.93565 88.5906 7.95361 88.6988 7.994C88.8069 8.03439 88.9056 8.09637 88.9889 8.17613C89.0689 8.25903 89.1312 8.35735 89.1717 8.46507C89.2123 8.57278 89.2303 8.68761 89.2247 8.80252V9.35061C89.2303 9.46551 89.2123 9.58034 89.1717 9.68806C89.1312 9.79577 89.0689 9.8941 88.9889 9.977C88.9056 10.0568 88.8069 10.1187 88.6988 10.1591C88.5906 10.1995 88.4753 10.2175 88.36 10.2119H83.4816L83.4831 21.6005Z" fill="white"/>
<path id="Ellipse 565" d="M102.872 31.8269C105.704 31.8269 108 29.5404 108 26.7198C108 23.8992 105.704 21.6127 102.872 21.6127C100.041 21.6127 97.7451 23.8992 97.7451 26.7198C97.7451 29.5404 100.041 31.8269 102.872 31.8269Z" fill="#37C56B"/>
</g>
<defs>
<clipPath id="clip0_103_79">
<rect width="108" height="31.3297" fill="white" transform="translate(0 0.497253)"/>
</clipPath>
</defs>
</svg>
